<svg width="189" height="61" fill="none" xmlns="http://www.w3.org/2000/svg"><path d="M187.834 22.892c.311 3.747-1.86 7.617-6.281 11.422-4.41 3.796-10.976 7.45-19.236 10.757-16.514 6.609-39.687 11.78-65.6 13.93-25.914 2.151-49.622.871-67-2.925-8.692-1.9-15.771-4.421-20.747-7.438-4.987-3.024-7.766-6.484-8.077-10.231-.311-3.747 1.86-7.617 6.28-11.422 4.41-3.796 10.977-7.451 19.237-10.757 16.514-6.61 39.687-11.78 65.6-13.93 25.914-2.151 49.622-.871 66.999 2.925 8.692 1.899 15.772 4.42 20.747 7.438 4.988 3.024 7.767 6.484 8.078 10.23Z" stroke="#fff"/></svg>