<svg width="234" height="44" viewBox="0 0 234 44" fill="none" xmlns="http://www.w3.org/2000/svg">
<g filter="url('#filter0_d_132_2')">
<path d="M4.32955 35L10.125 0.0909081H32.3693L31.5 5.25568H15.392L13.7898 14.9375H28.3466L27.4943 20.1023H12.9205L10.4659 35H4.32955ZM31.7727 35L36.1364 8.81818H41.9318L41.1989 13.1477H41.4716C42.1875 11.6477 43.2045 10.4886 44.5227 9.67045C45.8523 8.84091 47.267 8.42614 48.767 8.42614C49.108 8.42614 49.483 8.44318 49.892 8.47727C50.3125 8.5 50.6705 8.53977 50.9659 8.59659L50.0284 14.1193C49.7784 14.0398 49.3807 13.9659 48.8352 13.8977C48.3011 13.8182 47.767 13.7784 47.233 13.7784C46.0852 13.7784 45.0227 14.0227 44.0455 14.5114C43.0795 15 42.2614 15.6761 41.5909 16.5398C40.9318 17.392 40.5057 18.375 40.3125 19.4886L37.7557 35H31.7727ZM61.2145 35.5284C58.6009 35.5284 56.4361 34.9773 54.7202 33.875C53.0156 32.7614 51.8168 31.1989 51.1236 29.1875C50.4418 27.1648 50.3281 24.7898 50.7827 22.0625C51.2372 19.3693 52.1406 17.0057 53.4929 14.9716C54.8565 12.9261 56.5554 11.3352 58.5895 10.1989C60.6349 9.05114 62.8963 8.47727 65.3736 8.47727C66.9645 8.47727 68.4304 8.73295 69.7713 9.24432C71.1236 9.75568 72.2599 10.5511 73.1804 11.6307C74.1122 12.6989 74.7543 14.0682 75.1065 15.7386C75.4588 17.3977 75.4418 19.3807 75.0554 21.6875L74.7656 23.5625H53.4247L54.0724 19.4716H69.669C69.8736 18.2557 69.8054 17.1761 69.4645 16.233C69.1236 15.2898 68.544 14.5455 67.7259 14C66.919 13.4545 65.9077 13.1818 64.6918 13.1818C63.4418 13.1818 62.277 13.5 61.1974 14.1364C60.1293 14.7727 59.2259 15.5909 58.4872 16.5909C57.7599 17.5909 57.2997 18.642 57.1065 19.7443L56.4247 23.6307C56.1634 25.3239 56.2202 26.6989 56.5952 27.7557C56.9702 28.8125 57.6236 29.5909 58.5554 30.0909C59.4872 30.5795 60.6577 30.8239 62.0668 30.8239C62.9872 30.8239 63.8395 30.6989 64.6236 30.4489C65.419 30.1875 66.1236 29.8011 66.7372 29.2898C67.3622 28.767 67.8793 28.125 68.2884 27.3636L73.7429 28.0625C73.1293 29.5625 72.2202 30.875 71.0156 32C69.8111 33.1136 68.3793 33.983 66.7202 34.608C65.0611 35.2216 63.2259 35.5284 61.2145 35.5284ZM89.6676 35.5284C87.054 35.5284 84.8892 34.9773 83.1733 33.875C81.4688 32.7614 80.2699 31.1989 79.5767 29.1875C78.8949 27.1648 78.7812 24.7898 79.2358 22.0625C79.6903 19.3693 80.5938 17.0057 81.946 14.9716C83.3097 12.9261 85.0085 11.3352 87.0426 10.1989C89.0881 9.05114 91.3494 8.47727 93.8267 8.47727C95.4176 8.47727 96.8835 8.73295 98.2244 9.24432C99.5767 9.75568 100.713 10.5511 101.634 11.6307C102.565 12.6989 103.207 14.0682 103.56 15.7386C103.912 17.3977 103.895 19.3807 103.509 21.6875L103.219 23.5625H81.8778L82.5256 19.4716H98.1222C98.3267 18.2557 98.2585 17.1761 97.9176 16.233C97.5767 15.2898 96.9972 14.5455 96.179 14C95.3722 13.4545 94.3608 13.1818 93.1449 13.1818C91.8949 13.1818 90.7301 13.5 89.6506 14.1364C88.5824 14.7727 87.679 15.5909 86.9403 16.5909C86.2131 17.5909 85.7528 18.642 85.5597 19.7443L84.8778 23.6307C84.6165 25.3239 84.6733 26.6989 85.0483 27.7557C85.4233 28.8125 86.0767 29.5909 87.0085 30.0909C87.9403 30.5795 89.1108 30.8239 90.5199 30.8239C91.4403 30.8239 92.2926 30.6989 93.0767 30.4489C93.8722 30.1875 94.5767 29.8011 95.1903 29.2898C95.8153 28.767 96.3324 28.125 96.7415 27.3636L102.196 28.0625C101.582 29.5625 100.673 30.875 99.4688 32C98.2642 33.1136 96.8324 33.983 95.1733 34.608C93.5142 35.2216 91.679 35.5284 89.6676 35.5284ZM118.411 0.0909081L112.615 35H106.632L112.428 0.0909081H118.411ZM126.507 35.5455C124.848 35.5455 123.405 35.2443 122.178 34.642C120.95 34.0398 120.047 33.1534 119.467 31.983C118.888 30.8011 118.734 29.3523 119.007 27.6364C119.268 26.1705 119.757 24.9545 120.473 23.9886C121.189 23.0227 122.064 22.25 123.098 21.6705C124.143 21.0909 125.28 20.6534 126.507 20.358C127.746 20.0625 129.007 19.8466 130.291 19.7102C131.859 19.5398 133.132 19.392 134.109 19.267C135.087 19.1307 135.82 18.9261 136.308 18.6534C136.808 18.3693 137.109 17.9375 137.212 17.358V17.2386C137.416 15.9318 137.206 14.9148 136.581 14.1875C135.967 13.4489 134.922 13.0795 133.445 13.0795C131.911 13.0795 130.615 13.4205 129.558 14.1023C128.513 14.7727 127.751 15.5625 127.274 16.4716L121.871 15.6023C122.598 14.0114 123.581 12.6875 124.82 11.6307C126.058 10.5739 127.467 9.78409 129.047 9.26136C130.638 8.73864 132.325 8.47727 134.109 8.47727C135.325 8.47727 136.524 8.61932 137.706 8.90341C138.888 9.1875 139.939 9.67045 140.859 10.3523C141.791 11.0227 142.473 11.9432 142.905 13.1136C143.348 14.2727 143.428 15.7386 143.143 17.5114L140.229 35H134.467L135.081 31.4034H134.876C134.399 32.1193 133.768 32.7955 132.984 33.4318C132.212 34.0568 131.28 34.5682 130.189 34.9659C129.109 35.3523 127.882 35.5455 126.507 35.5455ZM128.723 31.0795C129.996 31.0795 131.138 30.8295 132.149 30.3295C133.161 29.8182 133.984 29.1477 134.621 28.3182C135.268 27.4886 135.678 26.5795 135.848 25.5909L136.359 22.4545C136.143 22.625 135.786 22.7784 135.286 22.9148C134.797 23.0511 134.251 23.1705 133.649 23.2727C133.047 23.375 132.456 23.4659 131.876 23.5455C131.297 23.625 130.803 23.6989 130.393 23.767C129.439 23.892 128.558 24.0966 127.751 24.3807C126.956 24.6648 126.297 25.0682 125.774 25.5909C125.263 26.1023 124.945 26.7614 124.82 27.5682C124.626 28.7273 124.899 29.6023 125.638 30.1932C126.376 30.7841 127.405 31.0795 128.723 31.0795ZM155.109 19.625L152.57 35H146.604L150.967 8.81818H156.678L155.945 13.233H156.268C157.087 11.7784 158.229 10.625 159.695 9.77273C161.172 8.90909 162.888 8.47727 164.842 8.47727C166.638 8.47727 168.143 8.86364 169.359 9.63636C170.575 10.3977 171.433 11.5114 171.933 12.9773C172.445 14.4432 172.524 16.233 172.172 18.3466L169.376 35H163.411L166.036 19.233C166.331 17.4602 166.104 16.0682 165.354 15.0568C164.615 14.0455 163.428 13.5398 161.791 13.5398C160.689 13.5398 159.672 13.7784 158.74 14.2557C157.82 14.733 157.041 15.4261 156.405 16.3352C155.768 17.2443 155.337 18.3409 155.109 19.625ZM187.01 35.5284C184.419 35.5284 182.288 34.9545 180.618 33.8068C178.947 32.6477 177.783 31.0568 177.124 29.0341C176.464 27 176.351 24.6648 176.783 22.0284C177.214 19.358 178.107 17.0057 179.459 14.9716C180.811 12.9375 182.516 11.3466 184.572 10.1989C186.641 9.05114 188.942 8.47727 191.476 8.47727C193.578 8.47727 195.374 8.86364 196.862 9.63636C198.362 10.4091 199.482 11.4943 200.22 12.892C200.959 14.2784 201.249 15.9034 201.089 17.767H195.362C195.328 16.517 194.925 15.4659 194.152 14.6136C193.379 13.75 192.249 13.3182 190.76 13.3182C189.453 13.3182 188.249 13.6648 187.146 14.358C186.055 15.0511 185.135 16.0398 184.385 17.3239C183.635 18.5966 183.118 20.125 182.834 21.9091C182.538 23.7159 182.55 25.2727 182.868 26.5795C183.186 27.875 183.771 28.875 184.624 29.5795C185.487 30.2727 186.572 30.6193 187.879 30.6193C188.8 30.6193 189.658 30.4489 190.453 30.108C191.249 29.7557 191.947 29.25 192.55 28.5909C193.163 27.9205 193.641 27.1136 193.982 26.1705H199.709C199.232 28 198.402 29.6193 197.22 31.0284C196.05 32.4261 194.595 33.5284 192.857 34.3352C191.129 35.1307 189.18 35.5284 187.01 35.5284ZM214.824 35.5284C212.21 35.5284 210.045 34.9773 208.33 33.875C206.625 32.7614 205.426 31.1989 204.733 29.1875C204.051 27.1648 203.938 24.7898 204.392 22.0625C204.847 19.3693 205.75 17.0057 207.102 14.9716C208.466 12.9261 210.165 11.3352 212.199 10.1989C214.244 9.05114 216.506 8.47727 218.983 8.47727C220.574 8.47727 222.04 8.73295 223.381 9.24432C224.733 9.75568 225.869 10.5511 226.79 11.6307C227.722 12.6989 228.364 14.0682 228.716 15.7386C229.068 17.3977 229.051 19.3807 228.665 21.6875L228.375 23.5625H207.034L207.682 19.4716H223.278C223.483 18.2557 223.415 17.1761 223.074 16.233C222.733 15.2898 222.153 14.5455 221.335 14C220.528 13.4545 219.517 13.1818 218.301 13.1818C217.051 13.1818 215.886 13.5 214.807 14.1364C213.739 14.7727 212.835 15.5909 212.097 16.5909C211.369 17.5909 210.909 18.642 210.716 19.7443L210.034 23.6307C209.773 25.3239 209.83 26.6989 210.205 27.7557C210.58 28.8125 211.233 29.5909 212.165 30.0909C213.097 30.5795 214.267 30.8239 215.676 30.8239C216.597 30.8239 217.449 30.6989 218.233 30.4489C219.028 30.1875 219.733 29.8011 220.347 29.2898C220.972 28.767 221.489 28.125 221.898 27.3636L227.352 28.0625C226.739 29.5625 225.83 30.875 224.625 32C223.42 33.1136 221.989 33.983 220.33 34.608C218.67 35.2216 216.835 35.5284 214.824 35.5284Z" fill="black"></path>
</g>
<defs>
<filter id="filter0_d_132_2" x="0.329529" y="0.0909119" width="232.915" height="43.4546" filterUnits="userSpaceOnUse" color-interpolation-filters="sRGB">
<feFlood flood-opacity="0" result="BackgroundImageFix"></feFlood>
<feColorMatrix in="SourceAlpha" type="matrix" values="0 0 0 0 0 0 0 0 0 0 0 0 0 0 0 0 0 0 127 0" result="hardAlpha"></feColorMatrix>
<feOffset dy="4"></feOffset>
<feGaussianBlur stdDeviation="2"></feGaussianBlur>
<feComposite in2="hardAlpha" operator="out"></feComposite>
<feColorMatrix type="matrix" values="0 0 0 0 0 0 0 0 0 0 0 0 0 0 0 0 0 0 0.25 0"></feColorMatrix>
<feBlend mode="normal" in2="BackgroundImageFix" result="effect1_dropShadow_132_2"></feBlend>
<feBlend mode="normal" in="SourceGraphic" in2="effect1_dropShadow_132_2" result="shape"></feBlend>
</filter>
</defs>
</svg>
