<svg width="300" height="121" viewBox="0 0 300 121" fill="none" xmlns="http://www.w3.org/2000/svg">
<g filter="url('#filter0_d_132_120')">
<path d="M37.3295 78L43.125 43.0909H65.3693L64.5 48.2557H48.392L46.7898 57.9375H61.3466L60.4943 63.1023H45.9205L43.4659 78H37.3295ZM64.7727 78L69.1364 51.8182H74.9318L74.1989 56.1477H74.4716C75.1875 54.6477 76.2045 53.4886 77.5227 52.6705C78.8523 51.8409 80.267 51.4261 81.767 51.4261C82.108 51.4261 82.483 51.4432 82.892 51.4773C83.3125 51.5 83.6705 51.5398 83.9659 51.5966L83.0284 57.1193C82.7784 57.0398 82.3807 56.9659 81.8352 56.8977C81.3011 56.8182 80.767 56.7784 80.233 56.7784C79.0852 56.7784 78.0227 57.0227 77.0455 57.5114C76.0795 58 75.2614 58.6761 74.5909 59.5398C73.9318 60.392 73.5057 61.375 73.3125 62.4886L70.7557 78H64.7727ZM94.2145 78.5284C91.6009 78.5284 89.4361 77.9773 87.7202 76.875C86.0156 75.7614 84.8168 74.1989 84.1236 72.1875C83.4418 70.1648 83.3281 67.7898 83.7827 65.0625C84.2372 62.3693 85.1406 60.0057 86.4929 57.9716C87.8565 55.9261 89.5554 54.3352 91.5895 53.1989C93.6349 52.0511 95.8963 51.4773 98.3736 51.4773C99.9645 51.4773 101.43 51.733 102.771 52.2443C104.124 52.7557 105.26 53.5511 106.18 54.6307C107.112 55.6989 107.754 57.0682 108.107 58.7386C108.459 60.3977 108.442 62.3807 108.055 64.6875L107.766 66.5625H86.4247L87.0724 62.4716H102.669C102.874 61.2557 102.805 60.1761 102.464 59.233C102.124 58.2898 101.544 57.5455 100.726 57C99.919 56.4545 98.9077 56.1818 97.6918 56.1818C96.4418 56.1818 95.277 56.5 94.1974 57.1364C93.1293 57.7727 92.2259 58.5909 91.4872 59.5909C90.7599 60.5909 90.2997 61.642 90.1065 62.7443L89.4247 66.6307C89.1634 68.3239 89.2202 69.6989 89.5952 70.7557C89.9702 71.8125 90.6236 72.5909 91.5554 73.0909C92.4872 73.5795 93.6577 73.8239 95.0668 73.8239C95.9872 73.8239 96.8395 73.6989 97.6236 73.4489C98.419 73.1875 99.1236 72.8011 99.7372 72.2898C100.362 71.767 100.879 71.125 101.288 70.3636L106.743 71.0625C106.129 72.5625 105.22 73.875 104.016 75C102.811 76.1136 101.379 76.983 99.7202 77.608C98.0611 78.2216 96.2259 78.5284 94.2145 78.5284ZM122.668 78.5284C120.054 78.5284 117.889 77.9773 116.173 76.875C114.469 75.7614 113.27 74.1989 112.577 72.1875C111.895 70.1648 111.781 67.7898 112.236 65.0625C112.69 62.3693 113.594 60.0057 114.946 57.9716C116.31 55.9261 118.009 54.3352 120.043 53.1989C122.088 52.0511 124.349 51.4773 126.827 51.4773C128.418 51.4773 129.884 51.733 131.224 52.2443C132.577 52.7557 133.713 53.5511 134.634 54.6307C135.565 55.6989 136.207 57.0682 136.56 58.7386C136.912 60.3977 136.895 62.3807 136.509 64.6875L136.219 66.5625H114.878L115.526 62.4716H131.122C131.327 61.2557 131.259 60.1761 130.918 59.233C130.577 58.2898 129.997 57.5455 129.179 57C128.372 56.4545 127.361 56.1818 126.145 56.1818C124.895 56.1818 123.73 56.5 122.651 57.1364C121.582 57.7727 120.679 58.5909 119.94 59.5909C119.213 60.5909 118.753 61.642 118.56 62.7443L117.878 66.6307C117.616 68.3239 117.673 69.6989 118.048 70.7557C118.423 71.8125 119.077 72.5909 120.009 73.0909C120.94 73.5795 122.111 73.8239 123.52 73.8239C124.44 73.8239 125.293 73.6989 126.077 73.4489C126.872 73.1875 127.577 72.8011 128.19 72.2898C128.815 71.767 129.332 71.125 129.741 70.3636L135.196 71.0625C134.582 72.5625 133.673 73.875 132.469 75C131.264 76.1136 129.832 76.983 128.173 77.608C126.514 78.2216 124.679 78.5284 122.668 78.5284ZM151.411 43.0909L145.615 78H139.632L145.428 43.0909H151.411ZM159.507 78.5455C157.848 78.5455 156.405 78.2443 155.178 77.642C153.95 77.0398 153.047 76.1534 152.467 74.983C151.888 73.8011 151.734 72.3523 152.007 70.6364C152.268 69.1705 152.757 67.9545 153.473 66.9886C154.189 66.0227 155.064 65.25 156.098 64.6705C157.143 64.0909 158.28 63.6534 159.507 63.358C160.746 63.0625 162.007 62.8466 163.291 62.7102C164.859 62.5398 166.132 62.392 167.109 62.267C168.087 62.1307 168.82 61.9261 169.308 61.6534C169.808 61.3693 170.109 60.9375 170.212 60.358V60.2386C170.416 58.9318 170.206 57.9148 169.581 57.1875C168.967 56.4489 167.922 56.0795 166.445 56.0795C164.911 56.0795 163.615 56.4205 162.558 57.1023C161.513 57.7727 160.751 58.5625 160.274 59.4716L154.871 58.6023C155.598 57.0114 156.581 55.6875 157.82 54.6307C159.058 53.5739 160.467 52.7841 162.047 52.2614C163.638 51.7386 165.325 51.4773 167.109 51.4773C168.325 51.4773 169.524 51.6193 170.706 51.9034C171.888 52.1875 172.939 52.6705 173.859 53.3523C174.791 54.0227 175.473 54.9432 175.905 56.1136C176.348 57.2727 176.428 58.7386 176.143 60.5114L173.229 78H167.467L168.081 74.4034H167.876C167.399 75.1193 166.768 75.7955 165.984 76.4318C165.212 77.0568 164.28 77.5682 163.189 77.9659C162.109 78.3523 160.882 78.5455 159.507 78.5455ZM161.723 74.0795C162.996 74.0795 164.138 73.8295 165.149 73.3295C166.161 72.8182 166.984 72.1477 167.621 71.3182C168.268 70.4886 168.678 69.5795 168.848 68.5909L169.359 65.4545C169.143 65.625 168.786 65.7784 168.286 65.9148C167.797 66.0511 167.251 66.1705 166.649 66.2727C166.047 66.375 165.456 66.4659 164.876 66.5455C164.297 66.625 163.803 66.6989 163.393 66.767C162.439 66.892 161.558 67.0966 160.751 67.3807C159.956 67.6648 159.297 68.0682 158.774 68.5909C158.263 69.1023 157.945 69.7614 157.82 70.5682C157.626 71.7273 157.899 72.6023 158.638 73.1932C159.376 73.7841 160.405 74.0795 161.723 74.0795ZM188.109 62.625L185.57 78H179.604L183.967 51.8182H189.678L188.945 56.233H189.268C190.087 54.7784 191.229 53.625 192.695 52.7727C194.172 51.9091 195.888 51.4773 197.842 51.4773C199.638 51.4773 201.143 51.8636 202.359 52.6364C203.575 53.3977 204.433 54.5114 204.933 55.9773C205.445 57.4432 205.524 59.233 205.172 61.3466L202.376 78H196.411L199.036 62.233C199.331 60.4602 199.104 59.0682 198.354 58.0568C197.615 57.0455 196.428 56.5398 194.791 56.5398C193.689 56.5398 192.672 56.7784 191.74 57.2557C190.82 57.733 190.041 58.4261 189.405 59.3352C188.768 60.2443 188.337 61.3409 188.109 62.625ZM220.01 78.5284C217.419 78.5284 215.288 77.9545 213.618 76.8068C211.947 75.6477 210.783 74.0568 210.124 72.0341C209.464 70 209.351 67.6648 209.783 65.0284C210.214 62.358 211.107 60.0057 212.459 57.9716C213.811 55.9375 215.516 54.3466 217.572 53.1989C219.641 52.0511 221.942 51.4773 224.476 51.4773C226.578 51.4773 228.374 51.8636 229.862 52.6364C231.362 53.4091 232.482 54.4943 233.22 55.892C233.959 57.2784 234.249 58.9034 234.089 60.767H228.362C228.328 59.517 227.925 58.4659 227.152 57.6136C226.379 56.75 225.249 56.3182 223.76 56.3182C222.453 56.3182 221.249 56.6648 220.146 57.358C219.055 58.0511 218.135 59.0398 217.385 60.3239C216.635 61.5966 216.118 63.125 215.834 64.9091C215.538 66.7159 215.55 68.2727 215.868 69.5795C216.186 70.875 216.771 71.875 217.624 72.5795C218.487 73.2727 219.572 73.6193 220.879 73.6193C221.8 73.6193 222.658 73.4489 223.453 73.108C224.249 72.7557 224.947 72.25 225.55 71.5909C226.163 70.9205 226.641 70.1136 226.982 69.1705H232.709C232.232 71 231.402 72.6193 230.22 74.0284C229.05 75.4261 227.595 76.5284 225.857 77.3352C224.129 78.1307 222.18 78.5284 220.01 78.5284ZM247.824 78.5284C245.21 78.5284 243.045 77.9773 241.33 76.875C239.625 75.7614 238.426 74.1989 237.733 72.1875C237.051 70.1648 236.938 67.7898 237.392 65.0625C237.847 62.3693 238.75 60.0057 240.102 57.9716C241.466 55.9261 243.165 54.3352 245.199 53.1989C247.244 52.0511 249.506 51.4773 251.983 51.4773C253.574 51.4773 255.04 51.733 256.381 52.2443C257.733 52.7557 258.869 53.5511 259.79 54.6307C260.722 55.6989 261.364 57.0682 261.716 58.7386C262.068 60.3977 262.051 62.3807 261.665 64.6875L261.375 66.5625H240.034L240.682 62.4716H256.278C256.483 61.2557 256.415 60.1761 256.074 59.233C255.733 58.2898 255.153 57.5455 254.335 57C253.528 56.4545 252.517 56.1818 251.301 56.1818C250.051 56.1818 248.886 56.5 247.807 57.1364C246.739 57.7727 245.835 58.5909 245.097 59.5909C244.369 60.5909 243.909 61.642 243.716 62.7443L243.034 66.6307C242.773 68.3239 242.83 69.6989 243.205 70.7557C243.58 71.8125 244.233 72.5909 245.165 73.0909C246.097 73.5795 247.267 73.8239 248.676 73.8239C249.597 73.8239 250.449 73.6989 251.233 73.4489C252.028 73.1875 252.733 72.8011 253.347 72.2898C253.972 71.767 254.489 71.125 254.898 70.3636L260.352 71.0625C259.739 72.5625 258.83 73.875 257.625 75C256.42 76.1136 254.989 76.983 253.33 77.608C251.67 78.2216 249.835 78.5284 247.824 78.5284Z" fill="black"></path>
</g>
<defs>
<filter id="filter0_d_132_120" x="33.3295" y="43.0909" width="232.915" height="43.4546" filterUnits="userSpaceOnUse" color-interpolation-filters="sRGB">
<feFlood flood-opacity="0" result="BackgroundImageFix"></feFlood>
<feColorMatrix in="SourceAlpha" type="matrix" values="0 0 0 0 0 0 0 0 0 0 0 0 0 0 0 0 0 0 127 0" result="hardAlpha"></feColorMatrix>
<feOffset dy="4"></feOffset>
<feGaussianBlur stdDeviation="2"></feGaussianBlur>
<feComposite in2="hardAlpha" operator="out"></feComposite>
<feColorMatrix type="matrix" values="0 0 0 0 0 0 0 0 0 0 0 0 0 0 0 0 0 0 0.25 0"></feColorMatrix>
<feBlend mode="normal" in2="BackgroundImageFix" result="effect1_dropShadow_132_120"></feBlend>
<feBlend mode="normal" in="SourceGraphic" in2="effect1_dropShadow_132_120" result="shape"></feBlend>
</filter>
</defs>
</svg>
