<svg width="300" height="121" fill="none" xmlns="http://www.w3.org/2000/svg"><g filter="url('#filter0_d_132_120')"><path d="m37.33 78 5.795-34.91h22.244l-.869 5.166H48.392l-1.602 9.681h14.557l-.853 5.165H45.92L43.466 78H37.33Zm27.443 0 4.363-26.182h5.796l-.733 4.33h.273c.716-1.5 1.733-2.66 3.05-3.478 1.33-.83 2.745-1.244 4.245-1.244.341 0 .716.017 1.125.051.42.023.779.063 1.074.12l-.938 5.522c-.25-.08-.647-.153-1.193-.221-.534-.08-1.068-.12-1.602-.12-1.148 0-2.21.245-3.188.733a7.17 7.17 0 0 0-2.454 2.029 6.578 6.578 0 0 0-1.278 2.949L70.755 78h-5.983Zm29.442.528c-2.614 0-4.779-.55-6.495-1.653-1.704-1.114-2.903-2.676-3.596-4.688-.682-2.022-.796-4.397-.341-7.124.454-2.694 1.358-5.057 2.71-7.091 1.364-2.046 3.062-3.637 5.097-4.773 2.045-1.148 4.306-1.722 6.784-1.722 1.59 0 3.056.256 4.397.767a8.22 8.22 0 0 1 3.409 2.387c.932 1.068 1.574 2.437 1.927 4.108.352 1.659.335 3.642-.052 5.949l-.289 1.874H86.425l.647-4.09h15.597c.205-1.216.136-2.296-.205-3.239A4.411 4.411 0 0 0 100.726 57c-.807-.545-1.818-.818-3.034-.818-1.25 0-2.415.318-3.495.954a9.174 9.174 0 0 0-2.71 2.455c-.727 1-1.187 2.051-1.38 3.153l-.682 3.887c-.262 1.693-.205 3.068.17 4.125.375 1.056 1.029 1.835 1.96 2.335.932.489 2.103.733 3.512.733.92 0 1.773-.125 2.557-.375a6.375 6.375 0 0 0 2.113-1.16 6.474 6.474 0 0 0 1.551-1.925l5.455.698A11.078 11.078 0 0 1 104.016 75c-1.205 1.114-2.637 1.983-4.296 2.608-1.659.614-3.494.92-5.505.92Zm28.453 0c-2.614 0-4.779-.55-6.495-1.653-1.704-1.114-2.903-2.676-3.596-4.688-.682-2.022-.796-4.397-.341-7.124.454-2.694 1.358-5.057 2.71-7.091 1.364-2.046 3.063-3.637 5.097-4.773 2.045-1.148 4.306-1.722 6.784-1.722 1.591 0 3.057.256 4.397.767a8.23 8.23 0 0 1 3.41 2.387c.931 1.068 1.573 2.437 1.926 4.108.352 1.659.335 3.642-.051 5.949l-.29 1.874h-21.341l.648-4.09h15.596c.205-1.216.137-2.296-.204-3.239A4.418 4.418 0 0 0 129.179 57c-.807-.545-1.818-.818-3.034-.818a6.76 6.76 0 0 0-3.494.954 9.17 9.17 0 0 0-2.711 2.455c-.727 1-1.187 2.051-1.38 3.153l-.682 3.887c-.262 1.693-.205 3.068.17 4.125.375 1.056 1.029 1.835 1.961 2.335.931.489 2.102.733 3.511.733.92 0 1.773-.125 2.557-.375a6.37 6.37 0 0 0 2.113-1.16 6.471 6.471 0 0 0 1.551-1.925l5.455.698A11.078 11.078 0 0 1 132.469 75c-1.205 1.114-2.637 1.983-4.296 2.608-1.659.614-3.494.92-5.505.92Zm28.743-35.437L145.615 78h-5.983l5.796-34.91h5.983Zm8.096 35.455c-1.659 0-3.102-.302-4.329-.904-1.228-.602-2.131-1.489-2.711-2.659-.579-1.182-.733-2.63-.46-4.347.261-1.465.75-2.681 1.466-3.647a8.268 8.268 0 0 1 2.625-2.319 13.513 13.513 0 0 1 3.409-1.312c1.239-.295 2.5-.511 3.784-.648a210.8 210.8 0 0 0 3.818-.443c.978-.136 1.711-.34 2.199-.614.5-.284.801-.715.904-1.295v-.12c.204-1.306-.006-2.323-.631-3.05-.614-.74-1.659-1.108-3.136-1.108-1.534 0-2.83.34-3.887 1.022-1.045.67-1.807 1.46-2.284 2.37l-5.403-.87c.727-1.59 1.71-2.914 2.949-3.971a12.48 12.48 0 0 1 4.227-2.37c1.591-.522 3.278-.784 5.062-.784 1.216 0 2.415.142 3.597.426a8.612 8.612 0 0 1 3.153 1.45c.932.67 1.614 1.59 2.046 2.76.443 1.16.523 2.626.238 4.398L173.229 78h-5.762l.614-3.597h-.205c-.477.716-1.108 1.392-1.892 2.029-.772.625-1.704 1.136-2.795 1.534-1.08.386-2.307.58-3.682.58Zm2.216-4.467c1.273 0 2.415-.25 3.426-.75 1.012-.51 1.835-1.181 2.472-2.01a6.052 6.052 0 0 0 1.227-2.728l.511-3.136c-.216.17-.573.323-1.073.46-.489.136-1.035.255-1.637.358-.602.102-1.193.193-1.773.273-.579.079-1.073.153-1.483.221-.954.125-1.835.33-2.642.614-.795.284-1.454.687-1.977 1.21-.511.511-.829 1.17-.954 1.977-.194 1.16.079 2.034.818 2.625.738.591 1.767.886 3.085.886Zm26.386-11.454L185.57 78h-5.966l4.363-26.182h5.711l-.733 4.415h.323a9.114 9.114 0 0 1 3.427-3.46c1.477-.864 3.193-1.296 5.147-1.296 1.796 0 3.301.387 4.517 1.16 1.216.76 2.074 1.874 2.574 3.34.512 1.466.591 3.256.239 5.37L202.376 78h-5.965l2.625-15.767c.295-1.773.068-3.165-.682-4.176-.739-1.012-1.926-1.517-3.563-1.517a6.595 6.595 0 0 0-3.051.716c-.92.477-1.699 1.17-2.335 2.08-.637.908-1.068 2.005-1.296 3.289Zm31.901 15.903c-2.591 0-4.722-.574-6.392-1.721-1.671-1.16-2.835-2.75-3.494-4.773-.66-2.034-.773-4.37-.341-7.006.431-2.67 1.324-5.022 2.676-7.056 1.352-2.035 3.057-3.625 5.113-4.773 2.069-1.148 4.37-1.722 6.904-1.722 2.102 0 3.898.387 5.386 1.16 1.5.772 2.62 1.857 3.358 3.255.739 1.386 1.029 3.011.869 4.875h-5.727c-.034-1.25-.437-2.301-1.21-3.153-.773-.864-1.903-1.296-3.392-1.296a6.66 6.66 0 0 0-3.614 1.04c-1.091.693-2.011 1.682-2.761 2.966-.75 1.273-1.267 2.801-1.551 4.585-.296 1.807-.284 3.364.034 4.67.318 1.296.903 2.296 1.756 3 .863.694 1.948 1.04 3.255 1.04.921 0 1.779-.17 2.574-.511a6.241 6.241 0 0 0 2.097-1.517c.613-.67 1.091-1.477 1.432-2.42h5.727a12.277 12.277 0 0 1-2.489 4.857c-1.17 1.398-2.625 2.5-4.363 3.307-1.728.796-3.677 1.193-5.847 1.193Zm27.814 0c-2.614 0-4.779-.55-6.494-1.653-1.705-1.114-2.904-2.676-3.597-4.688-.682-2.022-.795-4.397-.341-7.124.455-2.694 1.358-5.057 2.71-7.091 1.364-2.046 3.063-3.637 5.097-4.773 2.045-1.148 4.307-1.722 6.784-1.722 1.591 0 3.057.256 4.398.767a8.233 8.233 0 0 1 3.409 2.387c.932 1.068 1.574 2.437 1.926 4.108.352 1.659.335 3.642-.051 5.949l-.29 1.874h-21.341l.648-4.09h15.596c.205-1.216.137-2.296-.204-3.239A4.418 4.418 0 0 0 254.335 57c-.807-.545-1.818-.818-3.034-.818a6.76 6.76 0 0 0-3.494.954 9.166 9.166 0 0 0-2.71 2.455c-.728 1-1.188 2.051-1.381 3.153l-.682 3.887c-.261 1.693-.204 3.068.171 4.125.375 1.056 1.028 1.835 1.96 2.335.932.489 2.102.733 3.511.733.921 0 1.773-.125 2.557-.375a6.385 6.385 0 0 0 2.114-1.16 6.471 6.471 0 0 0 1.551-1.925l5.454.698A11.052 11.052 0 0 1 257.625 75c-1.205 1.114-2.636 1.983-4.295 2.608-1.66.614-3.495.92-5.506.92Z" fill="#000"/></g><defs><filter id="filter0_d_132_120" x="33.33" y="43.091" width="232.915" height="43.455" filterUnits="userSpaceOnUse" color-interpolation-filters="sRGB"><feFlood flood-opacity="0" result="BackgroundImageFix"/><feColorMatrix in="SourceAlpha" values="0 0 0 0 0 0 0 0 0 0 0 0 0 0 0 0 0 0 127 0" result="hardAlpha"/><feOffset dy="4"/><feGaussianBlur stdDeviation="2"/><feComposite in2="hardAlpha" operator="out"/><feColorMatrix values="0 0 0 0 0 0 0 0 0 0 0 0 0 0 0 0 0 0 0.25 0"/><feBlend in2="BackgroundImageFix" result="effect1_dropShadow_132_120"/><feBlend in="SourceGraphic" in2="effect1_dropShadow_132_120" result="shape"/></filter></defs></svg>